<?xml version="1.0" encoding="utf-8"?>
<!-- Generator: Adobe Illustrator 18.1.1, SVG Export Plug-In . SVG Version: 6.00 Build 0)  -->
<!DOCTYPE svg PUBLIC "-//W3C//DTD SVG 1.1//EN" "http://www.w3.org/Graphics/SVG/1.1/DTD/svg11.dtd">
<svg version="1.1" id="Layer_1" xmlns="http://www.w3.org/2000/svg" xmlns:xlink="http://www.w3.org/1999/xlink" x="0px" y="0px"
	 viewBox="59.3 319.3 492.7 152.1" enable-background="new 59.3 319.3 492.7 152.1" xml:space="preserve">
<g id="Layer_2">
</g>
<g id="Layer_1_1_">
	<path fill="#FFFFFF" d="M59.3,441.4V319.3h5.9v122.2H59.3z"/>
	<path fill="#FFFFFF" d="M294,426.4c-7.7,11.7-17.7,17.4-31.4,17.4c-23.9,0-38.2-14.3-38.2-41v-53.6h5.6V399
		c0,26.4,10.7,39.7,32.1,39.7c11.5,0,20.5-4.6,26.8-13.8c5.3-7.7,5.3-16.5,5.3-27.5v-48.3h5.6v92.3h-6L294,426.4L294,426.4z"/>
	<path fill="#FFFFFF" d="M341.9,471.3h-5.5V349.2h5.5v22c11.2-16.5,24.3-24.4,41.3-24.4c27.1,0,47.6,22,47.6,49
		c0,26.3-19.5,48.1-47.4,48.1c-17.9,0-31.1-8-41.4-25.1V471.3z M383.5,439.2c22.6,0,41.4-18.9,41.4-44c0-25.3-20.1-43.8-42.3-43.8
		c-20.9,0-40.7,19.2-40.7,43C341.9,420,361,439.2,383.5,439.2z"/>
	<path fill="#FFFFFF" d="M462.6,397.5c1.2,25.3,18.9,41.4,41.7,41.4c17,0,31.1-9.3,38.6-26.4h6.2c-8.6,20.5-24.4,31.5-44.5,31.5
		c-27.8,0-47.8-22.2-47.8-48.5c0-27.5,21.1-49,46.9-49c28,0,47.6,19.9,48.3,51H462.6z M504.8,351c-22,0-39.2,15.3-42.3,40.7h83.5
		C542.9,366,526.6,351,504.8,351z"/>
	<path fill="#FFFFFF" d="M167.6,435.6c-0.8-1.3-1.9-1.5-2.8-1.5c-5.7,3.1-12.3,4.7-19.2,4.7c-24.4,0-41.9-20.5-41.9-43.4
		c0-16.7,8.6-30.7,20.6-38.2c0.2-0.1,0.1-0.4-0.1-0.4c-0.7-0.1-1.5-0.5-2.3-1.6c0,0-0.5-1-0.4-2c-13.8,8.4-23.5,24-23.5,42.3
		c0,25.6,20.1,48.5,47.6,48.5c8,0,15.6-2.1,22.2-5.7C168.1,436.9,167.6,435.6,167.6,435.6z"/>
	<path fill="#FFFFFF" d="M146.4,345.4c-8,0-15.8,2.2-22.6,6.3c-0.2,0.6-0.2,1.3,0.2,2.1c0,0,1.3,2.1,3.1,1.6
		c5.8-3.3,12.2-5.2,18.9-5.2c24.2,0,42.4,18.7,42.4,42.6c0,18.2-8.5,32.5-21.2,39.7c1.5,0.1,2.4,1.7,2.4,1.7
		c0.5,1.1,0.5,1.9,0.2,2.5c14.6-8.5,24.3-24.8,24.3-43.5C194.4,367.3,173.4,345.4,146.4,345.4z"/>
</g>
</svg>
