<?xml version="1.0" encoding="utf-8"?>
<!-- Generator: Adobe Illustrator 18.1.1, SVG Export Plug-In . SVG Version: 6.00 Build 0)  -->
<!DOCTYPE svg PUBLIC "-//W3C//DTD SVG 1.1//EN" "http://www.w3.org/Graphics/SVG/1.1/DTD/svg11.dtd">
<svg version="1.1" id="Layer_1" xmlns="http://www.w3.org/2000/svg" xmlns:xlink="http://www.w3.org/1999/xlink" x="0px" y="0px"
	 viewBox="0 0 792 612" enable-background="new 0 0 792 612" xml:space="preserve">
<g>
	<path d="M76.8,364.8V206.7h7.6v158.1H76.8z"/>
	<path fill="#00AEEF" d="M84.4,206.7v158.1h-7.6V206.7H84.4 M85.4,205.7h-1h-7.6h-1v1v158.1v1h1h7.6h1v-1V206.7V205.7L85.4,205.7z"
		/>
</g>
<g>
	<path d="M380.5,345.4c-10,15.1-22.9,22.5-40.7,22.5c-30.9,0-49.4-18.5-49.4-53.1v-69.4h7.3v64.5c0,34.2,13.8,51.4,41.6,51.4
		c14.9,0,26.5-6,34.7-17.8c6.9-10,6.9-21.3,6.9-35.6v-62.5h7.3v119.4h-7.8V345.4z"/>
	<path fill="#44C8F5" d="M388.3,245.4v119.4h-7.8v-19.3c-10,15.1-22.9,22.5-40.7,22.5c-30.9,0-49.4-18.5-49.4-53.1v-69.4h7.3v64.5
		c0,34.2,13.8,51.4,41.6,51.4c14.9,0,26.5-6,34.7-17.8c6.9-10,6.9-21.3,6.9-35.6v-62.5H388.3 M389.3,244.4h-1h-7.3h-1v1v62.5
		c0,14.1,0,25.3-6.7,35c-8,11.5-19.4,17.4-33.9,17.4c-13.5,0-23.7-4.2-30.4-12.5c-6.7-8.3-10.1-21.1-10.1-37.9v-64.5v-1h-1h-7.3h-1
		v1v69.4c0,8.7,1.1,16.5,3.4,23.3c2.2,6.7,5.6,12.4,9.9,17c8.7,9.2,21.2,13.9,37,13.9c16.9,0,29.6-6.5,39.7-20.3v16.1v1h1h7.8h1v-1
		V245.4V244.4L389.3,244.4z"/>
</g>
<g>
	<path d="M442.5,403.5h-7.1V245.4h7.1v28.5c14.5-21.3,31.4-31.6,53.4-31.6c35.1,0,61.6,28.5,61.6,63.4c0,34-25.3,62.3-61.4,62.3
		c-23.1,0-40.2-10.4-53.6-32.5V403.5z M496.3,361.9c29.3,0,53.6-24.5,53.6-56.9c0-32.7-26-56.7-54.7-56.7
		c-27.1,0-52.7,24.9-52.7,55.6C442.5,337,467.2,361.9,496.3,361.9z"/>
	<path fill="#8ED8F8" d="M495.9,242.3c35.1,0,61.6,28.5,61.6,63.4c0,34-25.3,62.3-61.4,62.3c-23.1,0-40.2-10.4-53.6-32.5v68h-7.1
		V245.4h7.1v28.5C457,252.5,473.9,242.3,495.9,242.3 M496.3,361.9c29.3,0,53.6-24.5,53.6-56.9c0-32.7-26-56.7-54.7-56.7
		c-27.1,0-52.7,24.9-52.7,55.6C442.5,337,467.2,361.9,496.3,361.9 M495.9,241.3c-21.3,0-38,9.4-52.4,29.4v-25.3v-1h-1h-7.1h-1v1
		v158.1v1h1h7.1h1v-1v-64.6c13.3,20.4,30.1,30,52.6,30c17.4,0,33.4-6.6,44.9-18.7c11.3-11.7,17.5-27.6,17.5-44.6
		C558.5,269.5,531,241.3,495.9,241.3L495.9,241.3z M496.3,360.9c-14,0-27.2-5.8-37.1-16.3c-10.1-10.7-15.7-25.2-15.7-40.8
		c0-29.1,24.2-54.6,51.7-54.6c13.7,0,27.4,5.8,37.4,15.8c10.5,10.5,16.3,24.7,16.3,39.9c0,15.3-5.5,29.5-15.5,39.9
		C523.5,355.2,510.4,360.9,496.3,360.9L496.3,360.9z"/>
</g>
<g>
	<path d="M598.6,307.9c1.6,32.7,24.5,53.6,54,53.6c22,0,40.2-12,50-34.2h8c-11.1,26.5-31.6,40.7-57.6,40.7
		c-36,0-61.8-28.7-61.8-62.7c0-35.6,27.3-63.4,60.7-63.4c36.2,0,61.6,25.8,62.5,66H598.6z M653.3,247.8c-28.5,0-50.7,19.8-54.7,52.7
		h108.1C702.6,267.2,681.5,247.8,653.3,247.8z"/>
	<path fill="#C7EAFB" d="M651.9,241.8c36.2,0,61.6,25.8,62.5,66H598.6c1.6,32.7,24.5,53.6,54,53.6c22,0,40.2-12,50-34.2h8
		c-11.1,26.5-31.6,40.7-57.6,40.7c-36,0-61.8-28.7-61.8-62.7C591.2,269.6,618.6,241.8,651.9,241.8 M598.6,300.5h108.1
		c-4-33.3-25.1-52.7-53.4-52.7C624.8,247.8,602.6,267.6,598.6,300.5 M651.9,240.8c-16.5,0-32,6.6-43.6,18.6
		c-11.7,12.1-18.1,28.3-18.1,45.7c0,17,6.3,32.9,17.7,44.8c11.7,12.2,27.7,18.9,45.1,18.9c26.5,0,47.3-14.7,58.5-41.3l0.6-1.4h-1.5
		h-8H702l-0.3,0.6c-4.8,10.8-11.5,19.2-20.1,25c-8.4,5.7-18.2,8.6-29,8.6c-14.3,0-27.3-5.1-36.8-14.3c-9.6-9.3-15.2-22.2-16.1-37.3
		h114.8h1l0-1c-0.4-19.9-6.8-36.7-18.3-48.8C685.7,247.1,670.1,240.8,651.9,240.8L651.9,240.8z M599.7,299.5
		c4.2-30.8,25.1-50.7,53.6-50.7c28.1,0,48.1,19.4,52.2,50.7H599.7L599.7,299.5z"/>
</g>
<g>
	<path stroke="#00B9F2" stroke-linejoin="round" stroke-miterlimit="10" d="M216.9,357.2c-1-1.7-2.4-2-3.6-1.9
		c-7.4,4-15.9,6.1-24.9,6.1c-31.6,0-54.2-26.5-54.2-56.2c0-21.6,11.1-39.7,26.7-49.5c0.2-0.1,0.1-0.5-0.1-0.5c-0.9-0.1-2-0.6-3-2.1
		c0,0-0.7-1.3-0.5-2.6c-17.8,10.9-30.4,31-30.4,54.7c0,33.1,26,62.7,61.6,62.7c10.4,0,20.2-2.7,28.7-7.4
		C217.6,358.9,216.9,357.2,216.9,357.2z"/>
</g>
<g>
	<path stroke="#00B9F2" stroke-linejoin="round" stroke-miterlimit="10" d="M189.5,240.5c-10.4,0-20.4,2.9-29.2,8.1
		c-0.2,0.8-0.2,1.7,0.3,2.7c0,0,1.7,2.7,4,2.1c7.5-4.3,15.8-6.7,24.5-6.7c31.3,0,54.9,24.2,54.9,55.1c0,23.6-11,42-27.4,51.4
		c1.9,0.1,3.1,2.2,3.1,2.2c0.6,1.4,0.6,2.4,0.3,3.2c18.9-11,31.5-32.1,31.5-56.3C251.6,268.9,224.4,240.5,189.5,240.5z"/>
</g>
</svg>
